<svg width="27" height="12" viewBox="0 0 27 12" fill="none" xmlns="http://www.w3.org/2000/svg">
<path d="M26 6.75C26.4142 6.75 26.75 6.41421 26.75 6C26.75 5.58579 26.4142 5.25 26 5.25L26 6.75ZM0.469669 5.46967C0.176777 5.76257 0.176777 6.23744 0.469669 6.53033L5.24264 11.3033C5.53553 11.5962 6.01041 11.5962 6.3033 11.3033C6.59619 11.0104 6.59619 10.5355 6.3033 10.2426L2.06066 6L6.3033 1.75736C6.59619 1.46447 6.59619 0.989594 6.3033 0.696701C6.01041 0.403807 5.53553 0.403808 5.24264 0.696701L0.469669 5.46967ZM26 5.25L1 5.25L1 6.75L26 6.75L26 5.25Z" fill="#333333"/>
</svg>
