<svg width="152" height="19" viewBox="0 0 152 19" fill="none" xmlns="http://www.w3.org/2000/svg">
<path fill-rule="evenodd" clip-rule="evenodd" d="M136.276 0L148.337 12.0609V0.724644L148.7 0.361705H151.081L151.444 0.724644V18.9975H150.874L139.02 7.14398V18.6358L138.657 18.9975H136.276L135.914 18.6358V0.361705L136.276 0Z" fill="black"/>
<path fill-rule="evenodd" clip-rule="evenodd" d="M80.0215 0L84.7323 11.3635L89.4431 0H92.8071L85.094 18.6371L84.7323 19L84.3693 18.6371L76.6562 0H80.0215Z" fill="black"/>
<path fill-rule="evenodd" clip-rule="evenodd" d="M107.866 0C109.678 0 111.396 0.946852 112.343 2.32948L110.532 4.14171H109.962C109.586 3.33929 108.761 2.84796 107.866 2.84796C106.8 2.84796 105.801 3.72445 105.742 4.84043C105.699 5.67988 106.084 6.20454 106.779 6.65265C107.527 7.13534 107.833 7.33656 108.849 7.89455C109.957 8.50315 112.758 9.6969 112.758 12.8387C112.758 15.936 110.169 18.8173 106.83 18.8173C106.401 18.8173 105.625 18.7692 105.045 18.6358C103.409 18.2396 102.417 17.6211 101.344 16.3582L103.673 13.9769L104.476 14.6497C104.837 14.9336 105.632 15.5052 106.389 15.6076C107.927 15.8163 108.959 14.799 109.159 13.7954C109.319 13.0029 109.117 11.8202 107.84 11.2079C107.84 11.2079 105.536 9.92775 104.526 9.34384C103.498 8.74881 102.404 7.12423 102.404 5.17744C102.404 3.72815 103.068 2.32454 104.139 1.34683C104.966 0.588851 106.1 0 107.866 0Z" fill="black"/>
<path fill-rule="evenodd" clip-rule="evenodd" d="M98.2778 0V18.2741L97.9149 18.6358H95.1719V0.362939L95.5336 0H98.2778Z" fill="black"/>
<path fill-rule="evenodd" clip-rule="evenodd" d="M124.244 0C126.715 0 129.085 0.981706 130.832 2.72915C132.58 4.4766 133.562 6.84665 133.562 9.31791C133.562 11.7892 132.58 14.1592 130.832 15.9067C129.085 17.6541 126.715 18.6358 124.244 18.6358C121.772 18.6358 119.402 17.6541 117.655 15.9067C115.907 14.1592 114.926 11.7892 114.926 9.31791C114.926 6.84665 115.907 4.4766 117.655 2.72915C119.402 0.981706 121.772 0 124.244 0ZM124.242 3.10721C123.427 3.10729 122.619 3.26806 121.865 3.58034C121.111 3.89263 120.427 4.35031 119.85 4.92726C118.685 6.09245 118.03 7.67271 118.031 9.32038C118.031 10.9681 118.685 12.5482 119.851 13.7131C121.016 14.8781 122.596 15.5325 124.244 15.5323C125.891 15.5323 127.472 14.8778 128.637 13.7127C129.802 12.5476 130.456 10.9674 130.456 9.31976C130.456 7.67209 129.802 6.0919 128.637 4.92682C127.472 3.76174 125.891 3.10721 124.244 3.10721H124.242Z" fill="black"/>
<path fill-rule="evenodd" clip-rule="evenodd" d="M25.0374 0C26.8497 0 28.5681 0.946852 29.5149 2.32948L27.7039 4.14171H27.1336C26.7583 3.33929 25.9324 2.84796 25.0374 2.84796C23.9721 2.84796 22.9734 3.72445 22.9141 4.84043C22.8709 5.67988 23.2561 6.20454 23.9511 6.65265C24.6992 7.13534 25.0053 7.33656 26.0213 7.89455C27.1286 8.50315 29.9297 9.6969 29.9297 12.8387C29.9297 15.936 27.341 18.8173 24.0017 18.8173C23.5733 18.8173 22.7968 18.7692 22.2166 18.6358C20.5809 18.2396 19.5884 17.6211 18.5156 16.3582L20.8451 13.9769L21.6475 14.6497C22.0092 14.9336 22.8042 15.5052 23.561 15.6076C25.0991 15.8163 26.1312 14.799 26.3312 13.7954C26.4904 13.0029 26.2892 11.8202 25.0115 11.2079C25.0115 11.2079 22.7079 9.92775 21.6981 9.34384C20.6698 8.74881 19.5761 7.12423 19.5761 5.17744C19.5761 3.72815 20.2402 2.32454 21.3105 1.34683C22.1376 0.588851 23.2721 0 25.0374 0Z" fill="black"/>
<path fill-rule="evenodd" clip-rule="evenodd" d="M38.6195 0C40.4317 0 42.1501 0.946852 43.0969 2.32948L41.2859 4.14171H40.7156C40.3403 3.33929 39.5145 2.84796 38.6195 2.84796C37.5541 2.84796 36.5554 3.72445 36.4961 4.84043C36.4529 5.67988 36.8381 6.20454 37.5331 6.65265C38.2812 7.13534 38.5874 7.33656 39.6033 7.89455C40.7107 8.50315 43.5117 9.6969 43.5117 12.8387C43.5117 15.936 40.923 18.8173 37.5837 18.8173C37.1554 18.8173 36.3789 18.7692 35.7987 18.6358C34.163 18.2396 33.1704 17.6211 32.0977 16.3582L34.4271 13.9769L35.2296 14.6497C35.5913 14.9336 36.3863 15.5052 37.143 15.6076C38.6812 15.8163 39.7132 14.799 39.9132 13.7954C40.0724 13.0029 39.8712 11.8202 38.5935 11.2079C38.5935 11.2079 36.29 9.92775 35.2802 9.34384C34.2518 8.74881 33.1581 7.12423 33.1581 5.17744C33.1581 3.72815 33.8222 2.32454 34.8925 1.34683C35.7196 0.588851 36.8541 0 38.6195 0Z" fill="black"/>
<path fill-rule="evenodd" clip-rule="evenodd" d="M15.4497 0V18.2741L15.0868 18.6358H12.3438V0.362939L12.7055 0H15.4497Z" fill="black"/>
<path fill-rule="evenodd" clip-rule="evenodd" d="M54.9937 0C57.465 0 59.835 0.981706 61.5825 2.72915C63.3299 4.4766 64.3116 6.84665 64.3116 9.31791C64.3116 11.7892 63.3299 14.1592 61.5825 15.9067C59.835 17.6541 57.465 18.6358 54.9937 18.6358C52.5224 18.6358 50.1524 17.6541 48.4049 15.9067C46.6575 14.1592 45.6758 11.7892 45.6758 9.31791C45.6758 6.84665 46.6575 4.4766 48.4049 2.72915C50.1524 0.981706 52.5224 0 54.9937 0ZM54.9925 3.10721C54.1766 3.10729 53.3688 3.26806 52.6151 3.58034C51.8614 3.89263 51.1765 4.35031 50.5997 4.92726C49.4347 6.09245 48.7804 7.67271 48.7805 9.32038C48.7807 10.9681 49.4354 12.5482 50.6006 13.7131C51.7658 14.8781 53.346 15.5325 54.9937 15.5323C56.6414 15.5323 58.2216 14.8778 59.3866 13.7127C60.5517 12.5476 61.2063 10.9674 61.2063 9.31976C61.2063 7.67209 60.5517 6.0919 59.3866 4.92682C58.2216 3.76174 56.6414 3.10721 54.9937 3.10721H54.9925Z" fill="black"/>
<path fill-rule="evenodd" clip-rule="evenodd" d="M9.31791 0V2.74427L8.95497 3.10597H6.21194V18.6358H3.10597V3.10597H0V0.362939L0.362938 0H9.31791Z" fill="black"/>
</svg>
